<svg id="Component_7_1" data-name="Component 7 – 1" xmlns="http://www.w3.org/2000/svg" width="129.027" height="115.645" viewBox="0 0 129.027 115.645">
  <path id="Path_220" data-name="Path 220" d="M858.519,100.174,808.235,13.022a14.232,14.232,0,0,0-24.659,0l-50.284,87.151a14.247,14.247,0,0,0,12.332,21.37H846.187a14.247,14.247,0,0,0,12.332-21.37Zm-9.6,8.706a3.174,3.174,0,0,1-2.737,1.58H745.624a3.162,3.162,0,0,1-2.737-4.743l50.284-87.153a3.155,3.155,0,0,1,5.469,0l50.284,87.149A3.179,3.179,0,0,1,848.924,108.88Z" transform="translate(-731.393 -5.899)" fill="#9eca45"/>
  <path id="Path_221" data-name="Path 221" d="M760.16,61.468h12.7l2.783-37.944H757.377Z" transform="translate(-701.997 14.066)" fill="#9eca45"/>
  <rect id="Rectangle_117" data-name="Rectangle 117" width="15.947" height="15.215" transform="translate(56.491 81.935)" fill="#9eca45"/>
</svg>
